<mxfile host="app.diagrams.net" modified="2021-04-04T00:06:51.045Z" agent="5.0 (Windows)" etag="s2m4696fFSbmPY8mrjYL" version="14.5.4" type="github">
  <diagram name="Page-1" id="e7e014a7-5840-1c2e-5031-d8a46d1fe8dd">
    <mxGraphModel dx="868" dy="489" grid="1" gridSize="10" guides="1" tooltips="1" connect="1" arrows="1" fold="1" page="1" pageScale="1" pageWidth="1169" pageHeight="826" background="#ffffff" math="0" shadow="0">
      <root>
        <mxCell id="0" />
        <mxCell id="1" parent="0" />
        <mxCell id="lrU_wJDVbNWOW8-5Yqqu-41" value="Admin" style="shape=umlActor;verticalLabelPosition=bottom;verticalAlign=top;html=1;outlineConnect=0;" vertex="1" parent="1">
          <mxGeometry x="760" y="237.5" width="50" height="100" as="geometry" />
        </mxCell>
        <mxCell id="lrU_wJDVbNWOW8-5Yqqu-42" value="User" style="shape=umlActor;verticalLabelPosition=bottom;verticalAlign=top;html=1;outlineConnect=0;" vertex="1" parent="1">
          <mxGeometry x="40" y="210" width="50" height="90" as="geometry" />
        </mxCell>
        <mxCell id="lrU_wJDVbNWOW8-5Yqqu-76" style="edgeStyle=orthogonalEdgeStyle;rounded=0;orthogonalLoop=1;jettySize=auto;html=1;exitX=0.5;exitY=1;exitDx=0;exitDy=0;" edge="1" parent="1" source="lrU_wJDVbNWOW8-5Yqqu-43">
          <mxGeometry relative="1" as="geometry">
            <mxPoint x="430" y="550" as="targetPoint" />
          </mxGeometry>
        </mxCell>
        <mxCell id="lrU_wJDVbNWOW8-5Yqqu-43" value="" style="whiteSpace=wrap;html=1;aspect=fixed;" vertex="1" parent="1">
          <mxGeometry x="210" y="70" width="500" height="500" as="geometry" />
        </mxCell>
        <mxCell id="lrU_wJDVbNWOW8-5Yqqu-46" value="Login" style="ellipse;whiteSpace=wrap;html=1;" vertex="1" parent="1">
          <mxGeometry x="200" y="265" width="60" height="45" as="geometry" />
        </mxCell>
        <mxCell id="lrU_wJDVbNWOW8-5Yqqu-49" value="" style="endArrow=none;html=1;entryX=0;entryY=0.5;entryDx=0;entryDy=0;exitX=1;exitY=0.3333333333333333;exitDx=0;exitDy=0;exitPerimeter=0;" edge="1" parent="1" source="lrU_wJDVbNWOW8-5Yqqu-42" target="lrU_wJDVbNWOW8-5Yqqu-46">
          <mxGeometry width="50" height="50" relative="1" as="geometry">
            <mxPoint x="90" y="250" as="sourcePoint" />
            <mxPoint x="140" y="200" as="targetPoint" />
          </mxGeometry>
        </mxCell>
        <mxCell id="lrU_wJDVbNWOW8-5Yqqu-50" value="&lt;div&gt;Enter Search &lt;br&gt;&lt;/div&gt;&lt;div&gt;Box&lt;br&gt;&lt;/div&gt;" style="ellipse;whiteSpace=wrap;html=1;" vertex="1" parent="1">
          <mxGeometry x="350" y="80" width="100" height="50" as="geometry" />
        </mxCell>
        <mxCell id="lrU_wJDVbNWOW8-5Yqqu-51" value="Enter question into search box" style="ellipse;whiteSpace=wrap;html=1;" vertex="1" parent="1">
          <mxGeometry x="340" y="140" width="120" height="60" as="geometry" />
        </mxCell>
        <mxCell id="lrU_wJDVbNWOW8-5Yqqu-52" value="Post Question" style="ellipse;whiteSpace=wrap;html=1;" vertex="1" parent="1">
          <mxGeometry x="355" y="210" width="90" height="50" as="geometry" />
        </mxCell>
        <mxCell id="lrU_wJDVbNWOW8-5Yqqu-53" value="Logout" style="ellipse;whiteSpace=wrap;html=1;" vertex="1" parent="1">
          <mxGeometry x="355" y="270" width="80" height="40" as="geometry" />
        </mxCell>
        <mxCell id="lrU_wJDVbNWOW8-5Yqqu-54" value="Search Questions" style="ellipse;whiteSpace=wrap;html=1;" vertex="1" parent="1">
          <mxGeometry x="335" y="320" width="120" height="50" as="geometry" />
        </mxCell>
        <mxCell id="lrU_wJDVbNWOW8-5Yqqu-57" value="" style="endArrow=none;html=1;entryX=0;entryY=0.5;entryDx=0;entryDy=0;" edge="1" parent="1" target="lrU_wJDVbNWOW8-5Yqqu-50">
          <mxGeometry width="50" height="50" relative="1" as="geometry">
            <mxPoint x="220" y="265" as="sourcePoint" />
            <mxPoint x="300" y="72" as="targetPoint" />
          </mxGeometry>
        </mxCell>
        <mxCell id="lrU_wJDVbNWOW8-5Yqqu-58" value="" style="endArrow=none;html=1;exitX=0.5;exitY=0;exitDx=0;exitDy=0;" edge="1" parent="1" source="lrU_wJDVbNWOW8-5Yqqu-46" target="lrU_wJDVbNWOW8-5Yqqu-51">
          <mxGeometry width="50" height="50" relative="1" as="geometry">
            <mxPoint x="260" y="280" as="sourcePoint" />
            <mxPoint x="310" y="230" as="targetPoint" />
          </mxGeometry>
        </mxCell>
        <mxCell id="lrU_wJDVbNWOW8-5Yqqu-61" value="" style="endArrow=none;html=1;entryX=0;entryY=0.5;entryDx=0;entryDy=0;" edge="1" parent="1" source="lrU_wJDVbNWOW8-5Yqqu-46" target="lrU_wJDVbNWOW8-5Yqqu-52">
          <mxGeometry width="50" height="50" relative="1" as="geometry">
            <mxPoint x="230" y="260" as="sourcePoint" />
            <mxPoint x="354" y="292" as="targetPoint" />
          </mxGeometry>
        </mxCell>
        <mxCell id="lrU_wJDVbNWOW8-5Yqqu-62" value="" style="endArrow=none;html=1;entryX=0;entryY=0.5;entryDx=0;entryDy=0;" edge="1" parent="1" source="lrU_wJDVbNWOW8-5Yqqu-46" target="lrU_wJDVbNWOW8-5Yqqu-53">
          <mxGeometry width="50" height="50" relative="1" as="geometry">
            <mxPoint x="261" y="301" as="sourcePoint" />
            <mxPoint x="340" y="315" as="targetPoint" />
          </mxGeometry>
        </mxCell>
        <mxCell id="lrU_wJDVbNWOW8-5Yqqu-64" value="" style="endArrow=none;html=1;entryX=1;entryY=1;entryDx=0;entryDy=0;" edge="1" parent="1" source="lrU_wJDVbNWOW8-5Yqqu-54" target="lrU_wJDVbNWOW8-5Yqqu-46">
          <mxGeometry width="50" height="50" relative="1" as="geometry">
            <mxPoint x="260" y="413" as="sourcePoint" />
            <mxPoint x="310" y="363" as="targetPoint" />
          </mxGeometry>
        </mxCell>
        <mxCell id="lrU_wJDVbNWOW8-5Yqqu-65" value="&lt;div&gt;Answer user &lt;br&gt;&lt;/div&gt;&lt;div&gt;Questions&lt;br&gt;&lt;/div&gt;" style="ellipse;whiteSpace=wrap;html=1;" vertex="1" parent="1">
          <mxGeometry x="290" y="370" width="120" height="50" as="geometry" />
        </mxCell>
        <mxCell id="lrU_wJDVbNWOW8-5Yqqu-66" value="Ban User" style="ellipse;whiteSpace=wrap;html=1;" vertex="1" parent="1">
          <mxGeometry x="480" y="250" width="120" height="40" as="geometry" />
        </mxCell>
        <mxCell id="lrU_wJDVbNWOW8-5Yqqu-67" value="Logout" style="ellipse;whiteSpace=wrap;html=1;" vertex="1" parent="1">
          <mxGeometry x="410" y="393" width="100" height="40" as="geometry" />
        </mxCell>
        <mxCell id="lrU_wJDVbNWOW8-5Yqqu-68" value="Login" style="ellipse;whiteSpace=wrap;html=1;" vertex="1" parent="1">
          <mxGeometry x="580" y="360" width="85" height="50" as="geometry" />
        </mxCell>
        <mxCell id="lrU_wJDVbNWOW8-5Yqqu-69" value="" style="endArrow=none;html=1;entryX=0.667;entryY=1;entryDx=0;entryDy=0;entryPerimeter=0;" edge="1" parent="1" source="lrU_wJDVbNWOW8-5Yqqu-65" target="lrU_wJDVbNWOW8-5Yqqu-46">
          <mxGeometry width="50" height="50" relative="1" as="geometry">
            <mxPoint x="220" y="375" as="sourcePoint" />
            <mxPoint x="260" y="325" as="targetPoint" />
          </mxGeometry>
        </mxCell>
        <mxCell id="lrU_wJDVbNWOW8-5Yqqu-73" value="Use" style="endArrow=open;endSize=12;dashed=1;html=1;entryX=0;entryY=0;entryDx=0;entryDy=0;exitX=0.5;exitY=1;exitDx=0;exitDy=0;" edge="1" parent="1" source="lrU_wJDVbNWOW8-5Yqqu-66" target="lrU_wJDVbNWOW8-5Yqqu-68">
          <mxGeometry width="160" relative="1" as="geometry">
            <mxPoint x="360" y="360" as="sourcePoint" />
            <mxPoint x="520" y="360" as="targetPoint" />
          </mxGeometry>
        </mxCell>
        <mxCell id="lrU_wJDVbNWOW8-5Yqqu-75" value="" style="endArrow=none;html=1;exitX=0.588;exitY=0;exitDx=0;exitDy=0;exitPerimeter=0;" edge="1" parent="1" source="lrU_wJDVbNWOW8-5Yqqu-68">
          <mxGeometry width="50" height="50" relative="1" as="geometry">
            <mxPoint x="710" y="320" as="sourcePoint" />
            <mxPoint x="760" y="270" as="targetPoint" />
          </mxGeometry>
        </mxCell>
      </root>
    </mxGraphModel>
  </diagram>
</mxfile>
